<?xml version="1.0" encoding="utf-8"?>
<!-- Generator: Adobe Illustrator 25.2.1, SVG Export Plug-In . SVG Version: 6.00 Build 0)  -->
<svg version="1.1" id="Ebene_1" xmlns="http://www.w3.org/2000/svg" xmlns:xlink="http://www.w3.org/1999/xlink" x="0px" y="0px"
	 viewBox="0 0 128 128" style="enable-background:new 0 0 128 128;" xml:space="preserve">
<style type="text/css">
	.st0{fill:#F08C32;}
</style>
<g>
	<path class="st0" d="M28.3,101.3c0-2.5,0.6-4.6,1.8-6.5c1.2-1.9,2.5-3.4,4.3-4.5c1.8-1,3.3-1.8,4.9-2.2c1.6-0.4,3-0.7,4.2-0.7v-0.1
		c-8.3-2.5-12.5-7-12.5-13.5c0-3.9,1.3-7.3,4.2-10.1c2.8-2.8,5.8-4.8,9.1-5.7v-0.1c-4.2-1.9-7.1-4.6-9.4-8
		c-2.1-3.4-3.1-7.4-3.1-11.8c0-6.7,2.7-12.3,8-16.8s12-6.7,19.9-6.7c7.4,0,13.7,1.9,18.6,5.8c3.7-7,8-10.4,13.1-10.4
		c2.7,0,4.6,0.7,6.1,2.2s2.2,3.4,2.2,5.7c0,2.1-0.6,3.7-1.8,5.1s-2.7,2-4.6,2c-2.1,0-3.7-0.6-5.1-1.8c-1.3-1.2-1.9-2.8-1.9-4.8
		c0-1.3,0.3-2.5,0.7-3.3v-0.3c-1.2,0.3-2.4,1-3.4,2.5c-1.2,1.5-2.1,3.1-3,5.2c4.2,4.3,6.1,9.5,6.1,15.3c0,6.7-2.5,12.2-7.7,16.5
		s-11.8,6.4-19.6,6.4c-4.5,0-8.3-0.6-11.9-1.6c-2.7,0.9-4.8,2.1-6.4,3.6c-1.5,1.5-2.2,2.8-2.2,4.5c0,4.2,7.4,6.2,22.5,6.2
		c6.1,0,11.2,0.3,15.2,1c3.9,0.6,7.1,1.8,9.7,3.4c2.5,1.6,4.3,3.7,5.4,6.2S93,90,93,94c0,2.2-0.3,4.3-1,6.5s-1.9,4.3-3.6,6.4
		c-1.6,2.1-3.7,4-6.1,5.7c-2.4,1.6-5.5,3-9.2,3.9c-3.7,1-7.9,1.5-12.6,1.5c-2.8,0-5.5-0.1-8.2-0.3c-2.7-0.3-5.5-0.7-8.5-1.5
		c-3-0.7-5.7-1.6-7.7-2.8c-2.2-1.2-4-2.7-5.5-4.8C29,106.2,28.3,104,28.3,101.3z M40.3,99.3c0,2.8,0.6,5.2,1.9,7.1
		c1.3,1.9,3.1,3.6,5.4,4.6c2.2,1,4.6,1.8,7.1,2.2c2.5,0.4,5.2,0.7,8,0.7c7,0,12.3-1.3,16.5-4c4-2.7,6.1-6.2,6.1-10.6
		c0-2.8-0.7-4.9-2.4-6.5s-3.9-2.7-6.8-3.1c-3-0.4-6-0.9-8.9-0.9l-10.7-0.3c-4.2-0.1-7.6-0.3-10.4-0.7l0,0
		C42.3,90.6,40.3,94.3,40.3,99.3z M48.2,37.5c0,6.5,0.9,11.5,2.8,14.9s4.6,5.2,8.3,5.2c7.3,0,11-6.5,11-19.8
		c0-7.1-0.9-12.2-2.5-15.5s-4.3-4.9-8.2-4.9c-3.7,0-6.4,1.8-8.3,5.2C49.3,26.2,48.2,31.1,48.2,37.5z"/>
</g>
<rect width="128" height="128"/>
</svg>
